<?xml version="1.0" encoding="utf-8"?>
<svg version="1.1" xmlns:xlink="http://www.w3.org/1999/xlink" width="11px" height="18px" xmlns="http://www.w3.org/2000/svg">
  <g transform="matrix(1 0 0 1 -24 -33 )">
    <path d="M 10.8109965635739 1.08216432865731  C 10.9369988545246 1.20240480961924  11 1.34068136272545  11 1.49699398797595  C 11 1.65330661322645  10.9369988545246 1.79158316633266  10.8109965635739 1.91182364729459  L 3.38316151202749 9  L 10.8109965635739 16.0881763527054  C 10.9369988545246 16.2084168336673  11 16.3466933867735  11 16.503006012024  C 11 16.6593186372745  10.9369988545246 16.7975951903808  10.8109965635739 16.9178356713427  L 9.8659793814433 17.8196392785571  C 9.73997709049256 17.939879759519  9.5950744558992 18  9.43127147766323 18  C 9.26746849942726 18  9.12256586483391 17.939879759519  8.99656357388316 17.8196392785571  L 0.189003436426117 9.41482965931864  C 0.0630011454753723 9.29458917835671  0 9.1563126252505  0 9  C 0 8.8436873747495  0.0630011454753723 8.70541082164329  0.189003436426117 8.58517034068136  L 8.99656357388316 0.180360721442886  C 9.12256586483391 0.0601202404809613  9.26746849942726 0  9.43127147766323 0  C 9.5950744558992 0  9.73997709049256 0.0601202404809613  9.8659793814433 0.180360721442886  L 10.8109965635739 1.08216432865731  Z " fill-rule="nonzero" fill="#282828" stroke="none" transform="matrix(1 0 0 1 24 33 )" />
  </g>
</svg>