<?xml version="1.0" encoding="utf-8"?>
<svg version="1.1" xmlns:xlink="http://www.w3.org/1999/xlink" width="5px" height="8px" xmlns="http://www.w3.org/2000/svg">
  <g transform="matrix(1 0 0 1 -366 -265 )">
    <path d="M 4.91408934707904 0.480961923847695  C 4.97136311569301 0.534402137608549  5 0.595858383433533  5 0.665330661322646  C 5 0.734802939211757  4.97136311569301 0.79625918503674  4.91408934707904 0.849699398797595  L 1.53780068728522 4  L 4.91408934707904 7.1503006012024  C 4.97136311569301 7.20374081496326  5 7.26519706078824  5 7.33466933867735  C 5 7.40414161656647  4.97136311569301 7.46559786239145  4.91408934707904 7.51903807615231  L 4.48453608247423 7.91983967935872  C 4.42726231386025 7.97327989311957  4.36139747995418 8  4.28694158075601 8  C 4.21248568155785 8  4.14662084765178 7.97327989311957  4.0893470790378 7.91983967935872  L 0.0859106529209622 4.18436873747495  C 0.0286368843069874 4.13092852371409  0 4.06947227788911  0 4  C 0 3.93052772211089  0.0286368843069874 3.8690714762859  0.0859106529209622 3.81563126252505  L 4.0893470790378 0.0801603206412826  C 4.14662084765178 0.0267201068804273  4.21248568155785 0  4.28694158075601 0  C 4.36139747995418 0  4.42726231386025 0.0267201068804273  4.48453608247423 0.0801603206412826  L 4.91408934707904 0.480961923847695  Z " fill-rule="nonzero" fill="#aaaaaa" stroke="none" transform="matrix(1 0 0 1 366 265 )" />
  </g>
</svg>