<?xml version="1.0" encoding="utf-8"?>
<svg version="1.1" xmlns:xlink="http://www.w3.org/1999/xlink" width="46px" height="50px" xmlns="http://www.w3.org/2000/svg">
  <g transform="matrix(1 0 0 1 -346 -83 )">
    <path d="M 26.3034855769231 12.8348214285714  C 27.7133413461538 14.2485119047619  28.4182692307692 15.9598214285714  28.4182692307692 17.96875  C 28.4182692307692 19.9590773809524  27.7133413461538 21.6610863095238  26.3034855769231 23.0747767857143  C 24.8936298076923 24.4884672619048  23.2027243589744 25.1953125  21.2307692307692 25.1953125  C 19.2588141025641 25.1953125  17.5679086538462 24.4884672619048  16.1580528846154 23.0747767857143  C 14.7481971153846 21.6610863095238  14.0432692307692 19.9590773809524  14.0432692307692 17.96875  C 14.0432692307692 15.9598214285714  14.7481971153846 14.2485119047619  16.1580528846154 12.8348214285714  C 17.5679086538462 11.4211309523809  19.2588141025641 10.7142857142857  21.2307692307692 10.7142857142857  C 23.2027243589744 10.7142857142857  24.8936298076923 11.4211309523809  26.3034855769231 12.8348214285714  Z M 26.2067307692308 24.6512276785714  C 26.6674679487179 24.3629092261905  26.9623397435897 24.1815476190476  27.0913461538462 24.1071428571429  C 27.9391025641026 24.1071428571429  28.6993189102564 24.2652529761905  29.3719951923077 24.5814732142857  C 30.044671474359 24.8976934523809  30.5975560897436 25.3394717261905  31.0306490384615 25.9068080357143  C 31.4637419871795 26.4741443452381  31.8277243589744 27.0972842261905  32.1225961538462 27.7762276785714  C 32.4174679487179 28.4551711309524  32.6386217948718 29.2085193452381  32.7860576923077 30.0362723214286  C 32.9334935897436 30.864025297619  33.0394631410256 31.6313244047619  33.1039663461538 32.3381696428571  C 33.1684695512821 33.0450148809524  33.2007211538462 33.7797619047619  33.2007211538462 34.5424107142857  C 33.2007211538462 35.7886904761905  32.8367387820513 36.8908110119048  32.1087740384615 37.8487723214286  C 31.3808092948718 38.8067336309524  30.4086538461538 39.2857142857143  29.1923076923077 39  L 13.2692307692308 39  C 12.0528846153846 39.2857142857143  11.0807291666667 38.8067336309524  10.3527644230769 37.8487723214286  C 9.62479967948718 36.8908110119048  9.26081730769231 35.7886904761905  9.26081730769231 34.5424107142857  C 9.26081730769231 33.6495535714286  9.30228365384615 32.7799479166667  9.38521634615385 31.93359375  C 9.46814903846154 31.0872395833333  9.6386217948718 30.171130952381  9.89663461538462 29.1852678571429  C 10.1546474358974 28.1994047619048  10.4909855769231 27.348400297619  10.9056490384615 26.6322544642857  C 11.3203125 25.9161086309524  11.9008413461538 25.3162202380952  12.6472355769231 24.8325892857143  C 13.3936298076923 24.3489583333333  14.2552083333333 24.1071428571429  15.2319711538462 24.1071428571429  L 15.3701923076923 24.1071428571429  C 15.4991987179487 24.1815476190476  15.7940705128205 24.3629092261905  16.2548076923077 24.6512276785714  C 16.7155448717949 24.9395461309524  17.0426682692308 25.1348586309524  17.2361778846154 25.2371651785714  C 17.4296875 25.3394717261905  17.7337740384615 25.4975818452381  18.1484375 25.7114955357143  C 18.5631009615385 25.9254092261905  18.904046474359 26.07421875  19.1712740384615 26.1579241071429  C 19.4385016025641 26.2416294642857  19.7610176282051 26.3253348214286  20.1388221153846 26.4090401785714  C 20.5166266025641 26.4927455357143  20.880608974359 26.5345982142857  21.2307692307692 26.5345982142857  C 21.5809294871795 26.5345982142857  21.9449118589744 26.4927455357143  22.3227163461538 26.4090401785714  C 22.7005208333333 26.3253348214286  23.0230368589744 26.2416294642857  23.2902644230769 26.1579241071429  C 23.5574919871795 26.07421875  23.8984375 25.9254092261905  24.3131009615385 25.7114955357143  C 24.7277644230769 25.4975818452381  25.0318509615385 25.3394717261905  25.2253605769231 25.2371651785714  C 25.4188701923077 25.1348586309524  25.7459935897436 24.9395461309524  26.2067307692308 24.6512276785714  Z M 46 11.6071428571429  L 46 16.9642857142857  C 46 17.2061011904762  45.9124599358974 17.4153645833333  45.7373798076923 17.5920758928571  C 45.5622996794872 17.7687872023809  45.3549679487179 17.8571428571429  45.1153846153846 17.8571428571429  L 42.4615384615385 17.8571428571429  L 42.4615384615385 21.4285714285714  L 45.1153846153846 21.4285714285714  C 45.3549679487179 21.4285714285714  45.5622996794872 21.5169270833333  45.7373798076923 21.6936383928571  C 45.9124599358974 21.8703497023809  46 22.0796130952381  46 22.3214285714286  L 46 27.6785714285714  C 46 27.9203869047619  45.9124599358974 28.129650297619  45.7373798076923 28.3063616071429  C 45.5622996794872 28.4830729166667  45.3549679487179 28.5714285714286  45.1153846153846 28.5714285714286  L 42.4615384615385 28.5714285714286  L 42.4615384615385 32.1428571428571  L 45.1153846153846 32.1428571428571  C 45.3549679487179 32.1428571428571  45.5622996794872 32.231212797619  45.7373798076923 32.4079241071429  C 45.9124599358974 32.5846354166667  46 32.7938988095238  46 33.0357142857143  L 46 38.3928571428571  C 46 38.6346726190476  45.9124599358974 38.8439360119048  45.7373798076923 39.0206473214286  C 45.5622996794872 39.1973586309524  45.3549679487179 39.2857142857143  45.1153846153846 39.2857142857143  L 42.4615384615385 39.2857142857143  L 42.4615384615385 45.5357142857143  C 42.4615384615385 46.7633928571429  42.0284455128205 47.8143601190476  41.1622596153846 48.6886160714286  C 40.2960737179487 49.5628720238095  39.2548076923077 50  38.0384615384615 50  L 4.42307692307692 50  C 3.20673076923077 50  2.16546474358974 49.5628720238095  1.29927884615385 48.6886160714286  C 0.433092948717949 47.8143601190476  0 46.7633928571429  0 45.5357142857143  L 0 4.46428571428572  C 0 3.23660714285715  0.433092948717949 2.18563988095238  1.29927884615385 1.31138392857143  C 2.16546474358974 0.437127976190477  3.20673076923077 0  4.42307692307692 0  L 38.0384615384615 0  C 39.2548076923077 0  40.2960737179487 0.437127976190477  41.1622596153846 1.31138392857143  C 42.0284455128205 2.18563988095238  42.4615384615385 3.23660714285715  42.4615384615385 4.46428571428572  L 42.4615384615385 10.7142857142857  L 45.1153846153846 10.7142857142857  C 45.3549679487179 10.7142857142857  45.5622996794872 10.8026413690476  45.7373798076923 10.9793526785714  C 45.9124599358974 11.1560639880952  46 11.3653273809524  46 11.6071428571429  Z M 38.6604567307692 46.1635044642857  C 38.8355368589744 45.9867931547619  38.9230769230769 45.7775297619048  39 45.5357142857143  L 39 4.46428571428572  C 38.9230769230769 4.22247023809524  38.8355368589744 4.01320684523809  38.6604567307692 3.83649553571428  C 38.4853766025641 3.65978422619047  38.2780448717949 3.57142857142857  38.0384615384615 4  L 4.42307692307692 4  C 4.18349358974359 3.57142857142857  3.97616185897436 3.65978422619047  3.80108173076923 3.83649553571428  C 3.6260016025641 4.01320684523809  3.53846153846154 4.22247023809524  4 4.46428571428572  L 4 45.5357142857143  C 3.53846153846154 45.7775297619048  3.6260016025641 45.9867931547619  3.80108173076923 46.1635044642857  C 3.97616185897436 46.3402157738095  4.18349358974359 46.4285714285714  4.42307692307692 46  L 38.0384615384615 46  C 38.2780448717949 46.4285714285714  38.4853766025641 46.3402157738095  38.6604567307692 46.1635044642857  Z " fill-rule="nonzero" fill="#555555" stroke="none" transform="matrix(1 0 0 1 346 83 )" />
  </g>
</svg>