<?xml version="1.0" encoding="utf-8"?>
<svg version="1.1" xmlns:xlink="http://www.w3.org/1999/xlink" width="43px" height="36px" xmlns="http://www.w3.org/2000/svg">
  <g transform="matrix(1 0 0 1 -325 -59 )">
    <path d="M 12.9981971153846 32.4971590909091  C 13.1532451923077 32.34375  13.2307692307692 32.1477272727273  13.2307692307692 31.9090909090909  L 13.2307692307692 27  C 13.2307692307692 26.7613636363636  13.1532451923077 26.5653409090909  12.9981971153846 26.4119318181818  C 12.8431490384615 26.2585227272727  12.6450320512821 26.1818181818182  12.4038461538462 26.1818181818182  L 4.13461538461539 26.1818181818182  C 3.89342948717949 26.1818181818182  3.6953125 26.2585227272727  3.54026442307692 26.4119318181818  C 3.38521634615385 26.5653409090909  3.30769230769231 26.7613636363636  3.30769230769231 27  L 3.30769230769231 31.9090909090909  C 3.30769230769231 32.1477272727273  3.38521634615385 32.34375  3.54026442307692 32.4971590909091  C 3.6953125 32.6505681818182  3.89342948717949 32.7272727272727  4.13461538461539 32.7272727272727  L 12.4038461538462 32.7272727272727  C 12.6450320512821 32.7272727272727  12.8431490384615 32.6505681818182  12.9981971153846 32.4971590909091  Z M 12.9981971153846 22.6789772727273  C 13.1532451923077 22.5255681818182  13.2307692307692 22.3295454545455  13.2307692307692 22.0909090909091  L 13.2307692307692 17.1818181818182  C 13.2307692307692 16.9431818181818  13.1532451923077 16.7471590909091  12.9981971153846 16.59375  C 12.8431490384615 16.4403409090909  12.6450320512821 16.3636363636364  12.4038461538462 16.3636363636364  L 4.13461538461539 16.3636363636364  C 3.89342948717949 16.3636363636364  3.6953125 16.4403409090909  3.54026442307692 16.59375  C 3.38521634615385 16.7471590909091  3.30769230769231 16.9431818181818  3.30769230769231 17.1818181818182  L 3.30769230769231 22.0909090909091  C 3.30769230769231 22.3295454545455  3.38521634615385 22.5255681818182  3.54026442307692 22.6789772727273  C 3.6953125 22.8323863636364  3.89342948717949 22.9090909090909  4.13461538461539 22.9090909090909  L 12.4038461538462 22.9090909090909  C 12.6450320512821 22.9090909090909  12.8431490384615 22.8323863636364  12.9981971153846 22.6789772727273  Z M 26.2289663461538 32.4971590909091  C 26.3840144230769 32.34375  26.4615384615385 32.1477272727273  26.4615384615385 31.9090909090909  L 26.4615384615385 27  C 26.4615384615385 26.7613636363636  26.3840144230769 26.5653409090909  26.2289663461538 26.4119318181818  C 26.0739182692308 26.2585227272727  25.8758012820513 26.1818181818182  25.6346153846154 26.1818181818182  L 17.3653846153846 26.1818181818182  C 17.1241987179487 26.1818181818182  16.9260817307692 26.2585227272727  16.7710336538462 26.4119318181818  C 16.6159855769231 26.5653409090909  16.5384615384615 26.7613636363636  16.5384615384615 27  L 16.5384615384615 31.9090909090909  C 16.5384615384615 32.1477272727273  16.6159855769231 32.34375  16.7710336538462 32.4971590909091  C 16.9260817307692 32.6505681818182  17.1241987179487 32.7272727272727  17.3653846153846 32.7272727272727  L 25.6346153846154 32.7272727272727  C 25.8758012820513 32.7272727272727  26.0739182692308 32.6505681818182  26.2289663461538 32.4971590909091  Z M 12.9981971153846 12.8607954545455  C 13.1532451923077 12.7073863636364  13.2307692307692 12.5113636363636  13.2307692307692 12.2727272727273  L 13.2307692307692 7.36363636363637  C 13.2307692307692 7.12499999999999  13.1532451923077 6.92897727272727  12.9981971153846 6.77556818181818  C 12.8431490384615 6.62215909090909  12.6450320512821 6.54545454545454  12.4038461538462 6.54545454545454  L 4.13461538461539 6.54545454545454  C 3.89342948717949 6.54545454545454  3.6953125 6.62215909090909  3.54026442307692 6.77556818181818  C 3.38521634615385 6.92897727272727  3.30769230769231 7.12499999999999  3.30769230769231 7.36363636363637  L 3.30769230769231 12.2727272727273  C 3.30769230769231 12.5113636363636  3.38521634615385 12.7073863636364  3.54026442307692 12.8607954545455  C 3.6953125 13.0142045454545  3.89342948717949 13.0909090909091  4.13461538461539 13.0909090909091  L 12.4038461538462 13.0909090909091  C 12.6450320512821 13.0909090909091  12.8431490384615 13.0142045454545  12.9981971153846 12.8607954545455  Z M 26.2289663461538 22.6789772727273  C 26.3840144230769 22.5255681818182  26.4615384615385 22.3295454545455  26.4615384615385 22.0909090909091  L 26.4615384615385 17.1818181818182  C 26.4615384615385 16.9431818181818  26.3840144230769 16.7471590909091  26.2289663461538 16.59375  C 26.0739182692308 16.4403409090909  25.8758012820513 16.3636363636364  25.6346153846154 16.3636363636364  L 17.3653846153846 16.3636363636364  C 17.1241987179487 16.3636363636364  16.9260817307692 16.4403409090909  16.7710336538462 16.59375  C 16.6159855769231 16.7471590909091  16.5384615384615 16.9431818181818  16.5384615384615 17.1818181818182  L 16.5384615384615 22.0909090909091  C 16.5384615384615 22.3295454545455  16.6159855769231 22.5255681818182  16.7710336538462 22.6789772727273  C 16.9260817307692 22.8323863636364  17.1241987179487 22.9090909090909  17.3653846153846 22.9090909090909  L 25.6346153846154 22.9090909090909  C 25.8758012820513 22.9090909090909  26.0739182692308 22.8323863636364  26.2289663461538 22.6789772727273  Z M 39.4597355769231 32.4971590909091  C 39.6147836538462 32.34375  39.6923076923077 32.1477272727273  39.6923076923077 31.9090909090909  L 39.6923076923077 27  C 39.6923076923077 26.7613636363636  39.6147836538462 26.5653409090909  39.4597355769231 26.4119318181818  C 39.3046875 26.2585227272727  39.1065705128205 26.1818181818182  38.8653846153846 26.1818181818182  L 30.5961538461538 26.1818181818182  C 30.3549679487179 26.1818181818182  30.1568509615385 26.2585227272727  30.0018028846154 26.4119318181818  C 29.8467548076923 26.5653409090909  29.7692307692308 26.7613636363636  29.7692307692308 27  L 29.7692307692308 31.9090909090909  C 29.7692307692308 32.1477272727273  29.8467548076923 32.34375  30.0018028846154 32.4971590909091  C 30.1568509615385 32.6505681818182  30.3549679487179 32.7272727272727  30.5961538461538 32.7272727272727  L 38.8653846153846 32.7272727272727  C 39.1065705128205 32.7272727272727  39.3046875 32.6505681818182  39.4597355769231 32.4971590909091  Z M 26.2289663461538 12.8607954545455  C 26.3840144230769 12.7073863636364  26.4615384615385 12.5113636363636  26.4615384615385 12.2727272727273  L 26.4615384615385 7.36363636363637  C 26.4615384615385 7.12499999999999  26.3840144230769 6.92897727272727  26.2289663461538 6.77556818181818  C 26.0739182692308 6.62215909090909  25.8758012820513 6.54545454545454  25.6346153846154 6.54545454545454  L 17.3653846153846 6.54545454545454  C 17.1241987179487 6.54545454545454  16.9260817307692 6.62215909090909  16.7710336538462 6.77556818181818  C 16.6159855769231 6.92897727272727  16.5384615384615 7.12499999999999  16.5384615384615 7.36363636363637  L 16.5384615384615 12.2727272727273  C 16.5384615384615 12.5113636363636  16.6159855769231 12.7073863636364  16.7710336538462 12.8607954545455  C 16.9260817307692 13.0142045454545  17.1241987179487 13.0909090909091  17.3653846153846 13.0909090909091  L 25.6346153846154 13.0909090909091  C 25.8758012820513 13.0909090909091  26.0739182692308 13.0142045454545  26.2289663461538 12.8607954545455  Z M 39.4597355769231 22.6789772727273  C 39.6147836538462 22.5255681818182  39.6923076923077 22.3295454545455  39.6923076923077 22.0909090909091  L 39.6923076923077 17.1818181818182  C 39.6923076923077 16.9431818181818  39.6147836538462 16.7471590909091  39.4597355769231 16.59375  C 39.3046875 16.4403409090909  39.1065705128205 16.3636363636364  38.8653846153846 16.3636363636364  L 30.5961538461538 16.3636363636364  C 30.3549679487179 16.3636363636364  30.1568509615385 16.4403409090909  30.0018028846154 16.59375  C 29.8467548076923 16.7471590909091  29.7692307692308 16.9431818181818  29.7692307692308 17.1818181818182  L 29.7692307692308 22.0909090909091  C 29.7692307692308 22.3295454545455  29.8467548076923 22.5255681818182  30.0018028846154 22.6789772727273  C 30.1568509615385 22.8323863636364  30.3549679487179 22.9090909090909  30.5961538461538 22.9090909090909  L 38.8653846153846 22.9090909090909  C 39.1065705128205 22.9090909090909  39.3046875 22.8323863636364  39.4597355769231 22.6789772727273  Z M 39.4597355769231 12.8607954545455  C 39.6147836538462 12.7073863636364  39.6923076923077 12.5113636363636  39.6923076923077 12.2727272727273  L 39.6923076923077 7.36363636363637  C 39.6923076923077 7.12499999999999  39.6147836538462 6.92897727272727  39.4597355769231 6.77556818181818  C 39.3046875 6.62215909090909  39.1065705128205 6.54545454545454  38.8653846153846 6.54545454545454  L 30.5961538461538 6.54545454545454  C 30.3549679487179 6.54545454545454  30.1568509615385 6.62215909090909  30.0018028846154 6.77556818181818  C 29.8467548076923 6.92897727272727  29.7692307692308 7.12499999999999  29.7692307692308 7.36363636363637  L 29.7692307692308 12.2727272727273  C 29.7692307692308 12.5113636363636  29.8467548076923 12.7073863636364  30.0018028846154 12.8607954545455  C 30.1568509615385 13.0142045454545  30.3549679487179 13.0909090909091  30.5961538461538 13.0909090909091  L 38.8653846153846 13.0909090909091  C 39.1065705128205 13.0909090909091  39.3046875 13.0142045454545  39.4597355769231 12.8607954545455  Z M 41.7854567307692 1.20170454545454  C 42.5951522435898 2.00284090909091  43 2.96590909090909  43 4.09090909090909  L 43 31.9090909090909  C 43 33.0340909090909  42.5951522435898 33.9971590909091  41.7854567307692 34.7982954545455  C 40.9757612179487 35.5994318181818  40.0024038461538 36  38.8653846153846 36  L 4.13461538461539 36  C 2.99759615384615 36  2.02423878205128 35.5994318181818  1.21454326923077 34.7982954545455  C 0.404847756410256 33.9971590909091  0 33.0340909090909  0 31.9090909090909  L 0 4.09090909090909  C 0 2.96590909090909  0.404847756410256 2.00284090909091  1.21454326923077 1.20170454545454  C 2.02423878205128 0.400568181818177  2.99759615384615 0  4.13461538461539 0  L 38.8653846153846 0  C 40.0024038461538 0  40.9757612179487 0.400568181818177  41.7854567307692 1.20170454545454  Z " fill-rule="nonzero" fill="#ffffff" stroke="none" transform="matrix(1 0 0 1 325 59 )" />
  </g>
</svg>