<?xml version="1.0" encoding="utf-8"?>
<svg version="1.1" xmlns:xlink="http://www.w3.org/1999/xlink" width="37px" height="40px" xmlns="http://www.w3.org/2000/svg">
  <g transform="matrix(1 0 0 1 -46 -57 )">
    <path d="M 2.84615384615385 30.7142857142857  L 2.84615384615385 37.1428571428571  L 9.25 37.1428571428571  L 9.25 30.7142857142857  L 2.84615384615385 30.7142857142857  Z M 10.6730769230769 30.7142857142857  L 10.6730769230769 37.1428571428571  L 17.7884615384615 37.1428571428571  L 17.7884615384615 30.7142857142857  L 10.6730769230769 30.7142857142857  Z M 2.84615384615385 22.1428571428571  L 2.84615384615385 29.2857142857143  L 9.25 29.2857142857143  L 9.25 22.1428571428571  L 2.84615384615385 22.1428571428571  Z M 10.6730769230769 22.1428571428571  L 10.6730769230769 29.2857142857143  L 17.7884615384615 29.2857142857143  L 17.7884615384615 22.1428571428571  L 10.6730769230769 22.1428571428571  Z M 2.84615384615385 14.2857142857143  L 2.84615384615385 20.7142857142857  L 9.25 20.7142857142857  L 9.25 14.2857142857143  L 2.84615384615385 14.2857142857143  Z M 19.2115384615385 30.7142857142857  L 19.2115384615385 37.1428571428571  L 26.3269230769231 37.1428571428571  L 26.3269230769231 30.7142857142857  L 19.2115384615385 30.7142857142857  Z M 10.6730769230769 14.2857142857143  L 10.6730769230769 20.7142857142857  L 17.7884615384615 20.7142857142857  L 17.7884615384615 14.2857142857143  L 10.6730769230769 14.2857142857143  Z M 27.75 30.7142857142857  L 27.75 37.1428571428571  L 34.1538461538462 37.1428571428571  L 34.1538461538462 30.7142857142857  L 27.75 30.7142857142857  Z M 19.2115384615385 22.1428571428571  L 19.2115384615385 29.2857142857143  L 26.3269230769231 29.2857142857143  L 26.3269230769231 22.1428571428571  L 19.2115384615385 22.1428571428571  Z M 11.1733774038462 10.5022321428571  C 11.314202724359 10.3608630952381  11.3846153846154 10.1934523809524  11.3846153846154 10  L 11.3846153846154 3.57142857142857  C 11.3846153846154 3.37797619047619  11.314202724359 3.21056547619047  11.1733774038462 3.06919642857143  C 11.0325520833333 2.92782738095238  10.8657852564103 2.85714285714286  10.6730769230769 2.85714285714286  L 9.25 2.85714285714286  C 9.05729166666667 2.85714285714286  8.89052483974359 2.92782738095238  8.74969951923077 3.06919642857143  C 8.60887419871795 3.21056547619047  8.53846153846154 3.37797619047619  8.53846153846154 3.57142857142857  L 8.53846153846154 10  C 8.53846153846154 10.1934523809524  8.60887419871795 10.3608630952381  8.74969951923077 10.5022321428571  C 8.89052483974359 10.6436011904762  9.05729166666667 10.7142857142857  9.25 10.7142857142857  L 10.6730769230769 10.7142857142857  C 10.8657852564103 10.7142857142857  11.0325520833333 10.6436011904762  11.1733774038462 10.5022321428571  Z M 27.75 22.1428571428571  L 27.75 29.2857142857143  L 34.1538461538462 29.2857142857143  L 34.1538461538462 22.1428571428571  L 27.75 22.1428571428571  Z M 19.2115384615385 14.2857142857143  L 19.2115384615385 20.7142857142857  L 26.3269230769231 20.7142857142857  L 26.3269230769231 14.2857142857143  L 19.2115384615385 14.2857142857143  Z M 27.75 14.2857142857143  L 27.75 20.7142857142857  L 34.1538461538462 20.7142857142857  L 34.1538461538462 14.2857142857143  L 27.75 14.2857142857143  Z M 28.2503004807692 10.5022321428571  C 28.3911258012821 10.3608630952381  28.4615384615385 10.1934523809524  28.4615384615385 10  L 28.4615384615385 3.57142857142857  C 28.4615384615385 3.37797619047619  28.3911258012821 3.21056547619047  28.2503004807692 3.06919642857143  C 28.1094751602564 2.92782738095238  27.9427083333333 2.85714285714286  27.75 2.85714285714286  L 26.3269230769231 2.85714285714286  C 26.1342147435897 2.85714285714286  25.9674479166667 2.92782738095238  25.8266225961538 3.06919642857143  C 25.685797275641 3.21056547619047  25.6153846153846 3.37797619047619  25.6153846153846 3.57142857142857  L 25.6153846153846 10  C 25.6153846153846 10.1934523809524  25.685797275641 10.3608630952381  25.8266225961538 10.5022321428571  C 25.9674479166667 10.6436011904762  26.1342147435897 10.7142857142857  26.3269230769231 10.7142857142857  L 27.75 10.7142857142857  C 27.9427083333333 10.7142857142857  28.1094751602564 10.6436011904762  28.2503004807692 10.5022321428571  Z M 36.1550480769231 6.5625  C 36.7183493589744 7.12797619047619  37 7.79761904761905  37 8.57142857142857  L 37 37.1428571428571  C 37 37.9166666666667  36.7183493589744 38.5863095238095  36.1550480769231 39.1517857142857  C 35.5917467948718 39.7172619047619  34.9246794871795 40  34.1538461538462 40  L 2.84615384615385 40  C 2.07532051282051 40  1.40825320512821 39.7172619047619  0.844951923076923 39.1517857142857  C 0.281650641025641 38.5863095238095  0 37.9166666666667  0 37.1428571428571  L 0 8.57142857142857  C 0 7.79761904761905  0.281650641025641 7.12797619047619  0.844951923076923 6.5625  C 1.40825320512821 5.9970238095238  2.07532051282051 5.71428571428572  2.84615384615385 5.71428571428572  L 5.69230769230769 5.71428571428572  L 5.69230769230769 3.57142857142857  C 5.69230769230769 2.58928571428572  6.04066506410256 1.7485119047619  6.73737980769231 1.04910714285714  C 7.43409455128205 0.349702380952381  8.27163461538462 0  9.25 0  L 10.6730769230769 0  C 11.6514423076923 0  12.4889823717949 0.349702380952381  13.1856971153846 1.04910714285714  C 13.8824118589744 1.7485119047619  14.2307692307692 2.58928571428572  14.2307692307692 3.57142857142857  L 14.2307692307692 5.71428571428572  L 22.7692307692308 5.71428571428572  L 22.7692307692308 3.57142857142857  C 22.7692307692308 2.58928571428572  23.1175881410256 1.7485119047619  23.8143028846154 1.04910714285714  C 24.5110176282051 0.349702380952381  25.3485576923077 0  26.3269230769231 0  L 27.75 0  C 28.7283653846154 0  29.5659054487179 0.349702380952381  30.2626201923077 1.04910714285714  C 30.9593349358974 1.7485119047619  31.3076923076923 2.58928571428572  31.3076923076923 3.57142857142857  L 31.3076923076923 5.71428571428572  L 34.1538461538462 5.71428571428572  C 34.9246794871795 5.71428571428572  35.5917467948718 5.9970238095238  36.1550480769231 6.5625  Z " fill-rule="nonzero" fill="#ffffff" stroke="none" transform="matrix(1 0 0 1 46 57 )" />
  </g>
</svg>