<?xml version="1.0" encoding="utf-8"?>
<svg version="1.1" xmlns:xlink="http://www.w3.org/1999/xlink" width="43px" height="43px" xmlns="http://www.w3.org/2000/svg">
  <g transform="matrix(1 0 0 1 -135 -56 )">
    <path d="M 33.3138020833333 17.9166666666667  C 33.3138020833333 18.4019097222222  33.1365017361111 18.8218315972222  32.7819010416667 19.1764322916667  L 20.9680989583333 30.990234375  C 20.6134982638889 31.3448350694444  20.1935763888889 31.5221354166667  19.7083333333333 31.5221354166667  C 19.2230902777778 31.5221354166667  18.8031684027778 31.3448350694444  18.4485677083333 30.990234375  L 10.2180989583333 22.759765625  C 9.86349826388889 22.4051649305556  9.68619791666667 21.9852430555556  9.68619791666667 21.5  C 9.68619791666667 21.0147569444444  9.86349826388889 20.5948350694444  10.2180989583333 20.240234375  L 13.0735677083333 17.384765625  C 13.4281684027778 17.0301649305556  13.8480902777778 16.8528645833333  14.3333333333333 16.8528645833333  C 14.8185763888889 16.8528645833333  15.2384982638889 17.0301649305556  15.5930989583333 17.384765625  L 19.7083333333333 21.5  L 27.4069010416667 13.8014322916667  C 27.7615017361111 13.4468315972222  28.1814236111111 13.26953125  28.6666666666667 13.26953125  C 29.1519097222222 13.26953125  29.5718315972222 13.4468315972222  29.9264322916667 13.8014322916667  L 32.7819010416667 16.6569010416667  C 33.1365017361111 17.0115017361111  33.3138020833333 17.4314236111111  33.3138020833333 17.9166666666667  Z M 34.685546875 29.142578125  C 36.0479600694444 26.8096788194444  36.7291666666667 24.2621527777778  36.7291666666667 21.5  C 36.7291666666667 18.7378472222222  36.0479600694444 16.1903211805556  34.685546875 13.857421875  C 33.3231336805556 11.5245225694444  31.4754774305556 9.67686631944444  29.142578125 8.314453125  C 26.8096788194444 6.95203993055556  24.2621527777778 6.27083333333333  21.5 6.27083333333333  C 18.7378472222222 6.27083333333333  16.1903211805556 6.95203993055556  13.857421875 8.314453125  C 11.5245225694444 9.67686631944444  9.67686631944444 11.5245225694444  8.314453125 13.857421875  C 6.95203993055556 16.1903211805556  6.27083333333333 18.7378472222222  6.27083333333333 21.5  C 6.27083333333333 24.2621527777778  6.95203993055556 26.8096788194444  8.314453125 29.142578125  C 9.67686631944444 31.4754774305556  11.5245225694444 33.3231336805556  13.857421875 34.685546875  C 16.1903211805556 36.0479600694444  18.7378472222222 36.7291666666667  21.5 36.7291666666667  C 24.2621527777778 36.7291666666667  26.8096788194444 36.0479600694444  29.142578125 34.685546875  C 31.4754774305556 33.3231336805556  33.3231336805556 31.4754774305556  34.685546875 29.142578125  Z M 40.1165364583333 10.7080078125  C 42.0388454861111 14.0020616319444  43 17.5993923611111  43 21.5  C 43 25.4006076388889  42.0388454861111 28.9979383680556  40.1165364583333 32.2919921875  C 38.1942274305556 35.5860460069444  35.5860460069444 38.1942274305556  32.2919921875 40.1165364583333  C 28.9979383680556 42.0388454861111  25.4006076388889 43  21.5 43  C 17.5993923611111 43  14.0020616319444 42.0388454861111  10.7080078125 40.1165364583333  C 7.41395399305556 38.1942274305556  4.80577256944444 35.5860460069444  2.88346354166667 32.2919921875  C 0.961154513888889 28.9979383680556  0 25.4006076388889  0 21.5  C 0 17.5993923611111  0.961154513888889 14.0020616319444  2.88346354166667 10.7080078125  C 4.80577256944444 7.41395399305556  7.41395399305556 4.80577256944444  10.7080078125 2.88346354166667  C 14.0020616319444 0.961154513888885  17.5993923611111 0  21.5 0  C 25.4006076388889 0  28.9979383680556 0.961154513888885  32.2919921875 2.88346354166667  C 35.5860460069444 4.80577256944444  38.1942274305556 7.41395399305556  40.1165364583333 10.7080078125  Z " fill-rule="nonzero" fill="#ffffff" stroke="none" transform="matrix(1 0 0 1 135 56 )" />
  </g>
</svg>