<?xml version="1.0" encoding="utf-8"?>
<svg version="1.1" xmlns:xlink="http://www.w3.org/1999/xlink" width="43px" height="37px" xmlns="http://www.w3.org/2000/svg">
  <g transform="matrix(1 0 0 1 -230 -59 )">
    <path d="M 19.3551682692308 3.17440225035162  C 19.6824919871795 3.50398499765588  19.8461538461538 3.89428035630567  20 4.34528832630098  L 20 32.654711673699  C 19.8461538461538 33.1057196436943  19.6824919871795 33.4960150023441  19.3551682692308 33.8255977496484  C 19.0278445512821 34.1551804969526  18.6402243589744 34.3199718706048  18.1923076923077 34.3199718706048  C 17.744391025641 34.3199718706048  17.3567708333333 34.1551804969526  17.0294471153846 33.8255977496484  L 8.42427884615385 25.1610407876231  L 1.65384615384615 25.1610407876231  C 1.20592948717949 25.1610407876231  0.818309294871795 24.9962494139709  0.490985576923077 24.6666666666667  C 0.163661858974359 24.3370839193624  0 23.9467885607126  0 23.4957805907173  L 0 13.5042194092827  C 0 13.0532114392874  0.163661858974359 12.6629160806376  0.490985576923077 12.3333333333333  C 0.818309294871795 12.0037505860291  1.20592948717949 11.8389592123769  1.65384615384615 11.8389592123769  L 8.42427884615385 11.8389592123769  L 17.0294471153846 3.17440225035162  C 17.3567708333333 2.84481950304735  17.744391025641 2.68002812939522  18.1923076923077 2.68002812939522  C 18.6402243589744 2.68002812939522  19.0278445512821 2.84481950304735  19.3551682692308 3.17440225035162  Z M 28.6709735576923 14.8052039381153  C 29.4031450320513 15.950070323488  29.7692307692308 17.1816690107829  29.7692307692308 18.5  C 29.7692307692308 19.8183309892171  29.4031450320513 21.0455930614158  28.6709735576923 22.1817862165963  C 27.9388020833333 23.3179793717768  26.9697516025641 24.1289263947492  25.7638221153846 24.6146272855134  C 25.591546474359 24.7013595874355  25.3762019230769 24.7447257383966  25.1177884615385 24.7447257383966  C 24.6698717948718 24.7447257383966  24.2822516025641 24.5842709798406  23.9549278846154 24.2633614627286  C 23.6276041666667 23.9424519456165  23.4639423076923 23.5478199718706  23.4639423076923 23.0794655414909  C 23.4639423076923 22.7151898734177  23.5673076923077 22.407290201594  23.7740384615385 22.1557665260197  C 23.9807692307692 21.9042428504454  24.2305689102564 21.6874120956399  24.5234375 21.5052742616034  C 24.8163060897436 21.3231364275668  25.1091746794872 21.1236521331458  25.4020432692308 20.9068213783404  C 25.6949118589744 20.6899906235349  25.9447115384615 20.3777543366151  26.1514423076923 19.9701125175809  C 26.3581730769231 19.5624706985466  26.4615384615385 19.0724331926864  26.4615384615385 18.5  C 26.4615384615385 17.9275668073136  26.3581730769231 17.4375293014533  26.1514423076923 17.0298874824191  C 25.9447115384615 16.6222456633849  25.6949118589744 16.3100093764651  25.4020432692308 16.0931786216596  C 25.1091746794872 15.8763478668542  24.8163060897436 15.6768635724332  24.5234375 15.4947257383966  C 24.2305689102564 15.3125879043601  23.9807692307692 15.0957571495546  23.7740384615385 14.8442334739803  C 23.5673076923077 14.592709798406  23.4639423076923 14.2848101265823  23.4639423076923 13.9205344585091  C 23.4639423076923 13.4521800281294  23.6276041666667 13.0575480543835  23.9549278846154 12.7366385372715  C 24.2822516025641 12.4157290201594  24.6698717948718 12.2552742616034  25.1177884615385 12.2552742616034  C 25.3762019230769 12.2552742616034  25.591546474359 12.2986404125645  25.7638221153846 12.3853727144866  C 26.9697516025641 12.8537271448664  27.9388020833333 13.6603375527426  28.6709735576923 14.8052039381153  Z M 34.1881009615385 11.1494374120956  C 35.6524439102564 13.39580403188  36.3846153846154 15.8459915611814  36.3846153846154 18.5  C 36.3846153846154 21.1540084388186  35.6524439102564 23.60419596812  34.1881009615385 25.8505625879044  C 32.7237580128205 28.0969292076887  30.7856570512821 29.7318330989217  28.3737980769231 30.7552742616034  C 28.1498397435897 30.8420065635255  27.9344951923077 30.8853727144866  27.7277644230769 30.8853727144866  C 27.2626201923077 30.8853727144866  26.8663862179487 30.7205813408345  26.5390625 30.3909985935302  C 26.2117387820513 30.061415846226  26.0480769230769 29.6711204875762  26.0480769230769 29.2201125175809  C 26.0480769230769 28.5436005625879  26.3840144230769 28.0318799812471  27.0558894230769 27.6849507735584  C 28.0206330128205 27.1819034224098  28.6752804487179 26.8002812939522  29.0198317307692 26.5400843881857  C 30.294671474359 25.6033755274262  31.2895633012821 24.4281528363807  32.0045072115385 23.0144163150492  C 32.7194511217949 21.6006797937178  33.0769230769231 20.095874355368  33.0769230769231 18.5  C 33.0769230769231 16.904125644632  32.7194511217949 15.3993202062822  32.0045072115385 13.9855836849508  C 31.2895633012821 12.5718471636193  30.294671474359 11.3966244725738  29.0198317307692 10.4599156118143  C 28.6752804487179 10.1997187060478  28.0206330128205 9.81809657759025  27.0558894230769 9.31504922644163  C 26.3840144230769 8.96812001875293  26.0480769230769 8.4563994374121  26.0480769230769 7.77988748241913  C 26.0480769230769 7.32887951242381  26.2117387820513 6.93858415377402  26.5390625 6.60900140646976  C 26.8663862179487 6.27941865916549  27.2540064102564 6.11462728551336  27.7019230769231 6.11462728551336  C 27.9258814102564 6.11462728551336  28.1498397435897 6.15799343647444  28.3737980769231 6.24472573839663  C 30.7856570512821 7.26816690107829  32.7237580128205 8.90307079231129  34.1881009615385 11.1494374120956  Z M 39.7181490384615 7.50668073136428  C 41.9060496794872 10.845874355368  43 14.5103141115799  43 18.5  C 43 22.4896858884201  41.9060496794872 26.154125644632  39.7181490384615 29.4933192686357  C 37.5302483974359 32.8325128926395  34.6187900641026 35.2913736521331  30.9837740384615 36.8699015471167  C 30.7598157051282 36.9566338490389  30.5358573717949 37  30.3118990384615 37  C 29.8639823717949 37  29.4763621794872 36.8352086263479  29.1490384615385 36.5056258790436  C 28.8217147435897 36.1760431317393  28.6580528846154 35.7857477730895  28.6580528846154 35.3347398030942  C 28.6580528846154 34.7102672292546  28.9939903846154 34.1985466479137  29.6658653846154 33.7995780590717  C 29.7864583333333 33.730192217534  29.9802684294872 33.6391233005157  30.2472956730769 33.5263713080169  C 30.5143229166667 33.4136193155181  30.7081330128205 33.3225503984998  30.8287259615385 33.253164556962  C 31.6211939102564 32.8195030473511  32.3275240384615 32.3771683075481  32.9477163461538 31.9261603375527  C 35.0667067307692 30.3476324425692  36.7205528846154 28.3788091889358  37.9092548076923 26.0196905766526  C 39.0979567307692 23.6605719643694  39.6923076923077 21.1540084388186  39.6923076923077 18.5  C 39.6923076923077 15.8459915611814  39.0979567307692 13.3394280356306  37.9092548076923 10.9803094233474  C 36.7205528846154 8.62119081106423  35.0667067307692 6.65236755743085  32.9477163461538 5.07383966244726  C 32.3275240384615 4.62283169245194  31.6211939102564 4.18049695264885  30.8287259615385 3.74683544303797  C 30.7081330128205 3.67744960150023  30.5143229166667 3.58638068448195  30.2472956730769 3.47362869198312  C 29.9802684294872 3.36087669948429  29.7864583333333 3.26980778246601  29.6658653846154 3.20042194092827  C 28.9939903846154 2.80145335208626  28.6580528846154 2.28973277074543  28.6580528846154 1.66526019690577  C 28.6580528846154 1.21425222691045  28.8217147435897 0.823956868260662  29.1490384615385 0.494374120956399  C 29.4763621794872 0.164791373652132  29.8639823717949 0  30.3118990384615 0  C 30.5358573717949 0  30.7598157051282 0.0433661509610853  30.9837740384615 0.130098452883264  C 34.6187900641026 1.70862634786685  37.5302483974359 4.16748710736052  39.7181490384615 7.50668073136428  Z " fill-rule="nonzero" fill="#ffffff" stroke="none" transform="matrix(1 0 0 1 230 59 )" />
  </g>
</svg>