<?xml version="1.0" encoding="utf-8"?>
<svg version="1.1" xmlns:xlink="http://www.w3.org/1999/xlink" width="36px" height="30px" xmlns="http://www.w3.org/2000/svg">
  <g transform="matrix(1 0 0 1 -32 -133 )">
    <path d="M 30.0469031870114 16.4701704545455  C 30.3355381840048 16.5838068181818  30.4798556825015 16.7897727272727  30.4798556825015 17.0880681818182  L 30.4798556825015 23.8636363636364  C 30.4798556825015 25.5539772727273  29.870114251353 26.9992897727273  28.6506313890559 28.1995738636364  C 27.4311485267589 29.3998579545455  25.962717979555 30  24.2453397474444 30  L 6.23451593505713 30  C 4.51713770294648 30  3.04870715574263 29.3998579545455  1.82922429344558 28.1995738636364  C 0.609741431148527 26.9992897727273  0 25.5539772727273  0 23.8636363636364  L 0 6.13636363636364  C 0 4.44602272727272  0.609741431148527 3.00071022727273  1.82922429344558 1.80042613636364  C 3.04870715574263 0.600142045454543  4.51713770294648 0  6.23451593505713 0  L 24.2453397474444 0  C 25.1545399879735 0  25.9987973541792 0.177556818181817  26.7781118460613 0.532670454545453  C 26.9945880938064 0.632102272727271  27.1244738424534 0.795454545454545  27.1677690920024 1.02272727272727  C 27.2110643415514 1.26420454545454  27.1461214672279 1.47017045454545  26.9729404690319 1.640625  L 25.9122068550812 2.68465909090909  C 25.7678893565845 2.82670454545454  25.6019242333133 2.89772727272727  25.4143114852676 2.89772727272727  C 25.3710162357186 2.89772727272727  25.3060733613951 2.88352272727273  25.2194828622971 2.85511363636364  C 24.8875526157547 2.76988636363636  24.5628382441371 2.72727272727273  24.2453397474444 3  L 6.23451593505713 3  C 5.28202044497895 2.72727272727273  4.46662657847264 3.06107954545454  3.78833433553818 3.72869318181818  C 3.11004209260373 4.39630681818182  2.7708959711365 5.19886363636364  3 6.13636363636364  L 3 23.8636363636364  C 2.7708959711365 24.8011363636364  3.11004209260373 25.6036931818182  3.78833433553818 26.2713068181818  C 4.46662657847264 26.9389204545455  5.28202044497895 27.2727272727273  6.23451593505713 27  L 24.2453397474444 27  C 25.1978352375225 27.2727272727273  26.0132291040289 26.9389204545455  26.6915213469633 26.2713068181818  C 27.3698135898978 25.6036931818182  27.708959711365 24.8011363636364  27.708959711365 23.8636363636364  L 27.708959711365 18.4517045454545  C 27.708959711365 18.2670454545455  27.7739025856885 18.1107954545455  27.9037883343355 17.9829545454545  L 29.2892363199038 16.6193181818182  C 29.4335538184005 16.4772727272727  29.5995189416717 16.40625  29.7871316897174 16.40625  C 29.8737221888154 16.40625  29.9603126879134 16.4275568181818  30.0469031870114 16.4701704545455  Z M 36 5.45454545454545  C 36 5.92329545454545  35.826819001804 6.328125  35.4804570054119 6.66903409090909  L 17.8592904389657 24.0127840909091  C 17.5129284425737 24.3536931818182  17.1016235718581 24.5241477272727  16.625375826819 24.5241477272727  C 16.1491280817799 24.5241477272727  15.7378232110643 24.3536931818182  15.3914612146723 24.0127840909091  L 6.0829825616356 14.8508522727273  C 5.73662056524354 14.5099431818182  5.5634395670475 14.1051136363636  5.5634395670475 13.6363636363636  C 5.5634395670475 13.1676136363636  5.73662056524354 12.7627840909091  6.0829825616356 12.421875  L 8.46422128683103 10.078125  C 8.81058328322309 9.73721590909091  9.22188815393866 9.56676136363636  9.69813589897775 9.56676136363636  C 10.1743836440168 9.56676136363636  10.5856885147324 9.73721590909091  10.9320505111245 10.078125  L 16.625375826819 15.6818181818182  L 30.631389055923 1.89630681818182  C 30.9777510523151 1.55539772727273  31.3890559230307 1.38494318181818  31.8653036680698 1.38494318181818  C 32.3415514131088 1.38494318181818  32.7528562838244 1.55539772727273  33.0992182802165 1.89630681818182  L 35.4804570054119 4.24005681818182  C 35.826819001804 4.58096590909091  36 4.98579545454545  36 5.45454545454545  Z " fill-rule="nonzero" fill="#000000" stroke="none" transform="matrix(1 0 0 1 32 133 )" />
  </g>
</svg>