<?xml version="1.0" encoding="utf-8"?>
<svg version="1.1" xmlns:xlink="http://www.w3.org/1999/xlink" width="33px" height="36px" xmlns="http://www.w3.org/2000/svg">
  <g transform="matrix(1 0 0 1 -33 -28 )">
    <path d="M 16.5 34.3928571428571  C 16.7115384615385 34.3928571428571  16.8173076923077 34.2857142857143  16.8173076923077 34.0714285714286  C 16.8173076923077 33.8571428571429  16.7115384615385 33.75  16.5 33.75  C 15.7199519230769 33.75  15.0489783653846 33.4654017857143  14.4870793269231 32.8962053571429  C 13.9251802884615 32.3270089285714  13.6442307692308 31.6473214285714  13.6442307692308 30.8571428571429  C 13.6442307692308 30.6428571428571  13.5384615384615 30.5357142857143  13.3269230769231 30.5357142857143  C 13.1153846153846 30.5357142857143  13.0096153846154 30.6428571428571  13.0096153846154 30.8571428571429  C 13.0096153846154 31.8348214285714  13.3500600961538 32.6685267857143  14.0309495192308 33.3582589285714  C 14.7118389423077 34.0479910714286  15.5348557692308 34.3928571428571  16.5 34.3928571428571  Z M 8.88461538461539 11.5714285714286  C 8.88461538461539 18.6964285714286  7.12620192307692 24.2678571428571  3.609375 28  L 29.390625 28  C 25.8737980769231 24.2678571428571  24.1153846153846 18.6964285714286  24.1153846153846 11.5714285714286  C 24.1153846153846 10.8883928571429  23.9567307692308 10.1852678571429  23.6394230769231 9.46205357142857  C 23.3221153846154 8.73883928571428  22.8659855769231 8.04910714285714  22.2710336538462 7.39285714285714  C 21.6760817307692 6.73660714285714  20.8728966346154 6.19754464285714  19.8614783653846 5.77566964285714  C 18.8500600961538 5.35379464285714  17.7295673076923 5.14285714285714  16.5 5.14285714285714  C 15.2704326923077 5.14285714285714  14.1499399038462 5.35379464285714  13.1385216346154 5.77566964285714  C 12.1271033653846 6.19754464285714  11.3239182692308 6.73660714285714  10.7289663461538 7.39285714285714  C 10.1340144230769 8.04910714285714  9.67788461538462 8.73883928571428  9.36057692307692 9.46205357142857  C 9.04326923076923 10.1852678571429  8.88461538461539 10.8883928571429  8.88461538461539 11.5714285714286  Z M 31.1953125 26.5178571428571  C 31.7373798076923 27.1339285714286  32.3389423076923 27.7232142857143  33 28.2857142857143  C 33 28.9821428571429  32.7487980769231 29.5848214285714  32.2463942307692 30.09375  C 31.7439903846154 30.6026785714286  31.1490384615385 30.8571428571429  30.4615384615385 30.8571428571429  L 21.5769230769231 30.8571428571429  C 21.5769230769231 32.2767857142857  21.0811298076923 33.4888392857143  20.0895432692308 34.4933035714286  C 19.0979567307692 35.4977678571429  17.9014423076923 36  16.5 36  C 15.0985576923077 36  13.9020432692308 35.4977678571429  12.9104567307692 34.4933035714286  C 11.9188701923077 33.4888392857143  11.4230769230769 32.2767857142857  11.4230769230769 30.8571428571429  L 2.53846153846154 30.8571428571429  C 1.85096153846154 30.8571428571429  1.25600961538462 30.6026785714286  0.753605769230769 30.09375  C 0.251201923076923 29.5848214285714  0 28.9821428571429  0 28.2857142857143  C 0.661057692307693 27.7232142857143  1.26262019230769 27.1339285714286  1.8046875 26.5178571428571  C 2.34675480769231 25.9017857142857  2.90865384615385 25.1015625  3.49038461538462 24.1171875  C 4.07211538461539 23.1328125  4.56460336538462 22.0714285714286  4.96784855769231 20.9330357142857  C 5.37109375 19.7946428571429  5.70162259615385 18.4151785714286  5.95943509615385 16.7946428571429  C 6.21724759615385 15.1741071428571  6.34615384615385 13.4330357142857  6.34615384615385 11.5714285714286  C 6.34615384615385 9.53571428571428  7.11959134615385 7.64397321428572  8.66646634615384 5.89620535714286  C 10.2133413461538 4.1484375  12.2427884615385 3.08705357142857  14.7548076923077 2.71205357142857  C 14.6490384615385 2.45758928571428  14.5961538461538 2.19642857142857  14.5961538461538 1.92857142857143  C 14.5961538461538 1.39285714285714  14.78125 0.937499999999999  15.1514423076923 0.5625  C 15.5216346153846 0.187500000000001  15.9711538461538 0  16.5 0  C 17.0288461538462 0  17.4783653846154 0.187500000000001  17.8485576923077 0.5625  C 18.21875 0.937499999999999  18.4038461538462 1.39285714285714  18.4038461538462 1.92857142857143  C 18.4038461538462 2.19642857142857  18.3509615384615 2.45758928571428  18.2451923076923 2.71205357142857  C 20.7572115384615 3.08705357142857  22.7866586538462 4.1484375  24.3335336538462 5.89620535714286  C 25.8804086538462 7.64397321428572  26.6538461538462 9.53571428571428  26.6538461538462 11.5714285714286  C 26.6538461538462 13.4330357142857  26.7827524038462 15.1741071428571  27.0405649038462 16.7946428571429  C 27.2983774038462 18.4151785714286  27.62890625 19.7946428571429  28.0321514423077 20.9330357142857  C 28.4353966346154 22.0714285714286  28.9278846153846 23.1328125  29.5096153846154 24.1171875  C 30.0913461538462 25.1015625  30.6532451923077 25.9017857142857  31.1953125 26.5178571428571  Z " fill-rule="nonzero" fill="#000000" stroke="none" transform="matrix(1 0 0 1 33 28 )" />
  </g>
</svg>